<svg width="256" height="132" viewBox="0 0 256 132" fill="none" xmlns="http://www.w3.org/2000/svg">
<rect x="0.5" y="0.5" width="255" height="131" rx="23.5" fill="#F3583A"/>
<rect x="0.5" y="0.5" width="255" height="131" rx="23.5" stroke="black"/>
<path d="M119.72 48.2C119.72 48.2 119.547 48.2 119.2 48.2C118.88 48.2 118.507 48.1467 118.08 48.04C117.654 47.9333 117.267 47.7067 116.92 47.36C116.6 47.0133 116.44 46.4933 116.44 45.8C116.44 44.8667 116.64 44.2 117.04 43.8C117.467 43.4 117.907 43.1467 118.36 43.04C118.84 42.9333 119.16 42.8667 119.32 42.84C119.454 42.8133 119.64 42.8 119.88 42.8C120.12 42.8 120.36 42.6933 120.6 42.48C120.84 42.24 121.027 41.7867 121.16 41.12C121.32 40.4533 121.374 39.44 121.32 38.08C121.294 37.04 121.174 36.2667 120.96 35.76C120.774 35.2267 120.56 34.8667 120.32 34.68C120.08 34.4933 119.867 34.4 119.68 34.4C119.52 34.3733 119.44 34.36 119.44 34.36C119.44 34.3333 119.307 34.3733 119.04 34.48C118.774 34.56 118.507 34.7733 118.24 35.12C118 35.4667 117.907 36.0533 117.96 36.88C118.014 37.4933 118.094 38.08 118.2 38.64C118.307 39.1733 118.347 39.6533 118.32 40.08C118.294 40.48 118.094 40.8 117.72 41.04C117.374 41.2533 116.734 41.3467 115.8 41.32C114.894 41.2933 114.187 41.1333 113.68 40.84C113.174 40.52 112.814 40.1333 112.6 39.68C112.414 39.2 112.307 38.7067 112.28 38.2C112.254 37.6933 112.254 37.2267 112.28 36.8C112.307 36.3733 112.387 35.8533 112.52 35.24C112.68 34.6 112.987 33.9733 113.44 33.36C113.92 32.72 114.64 32.1867 115.6 31.76C116.56 31.3067 117.854 31.04 119.48 30.96C121.107 30.88 122.414 31.0133 123.4 31.36C124.387 31.68 125.134 32.1733 125.64 32.84C126.147 33.5067 126.494 34.2933 126.68 35.2C126.894 36.08 127.027 37.04 127.08 38.08C127.16 39.4667 127 40.7067 126.6 41.8C126.227 42.8667 125.72 43.76 125.08 44.48C124.44 45.1733 123.774 45.6667 123.08 45.96C123.08 45.96 123.054 46.08 123 46.32C122.974 46.56 122.867 46.84 122.68 47.16C122.494 47.4533 122.16 47.7067 121.68 47.92C121.227 48.1333 120.574 48.2267 119.72 48.2ZM119.36 49.56C119.36 49.56 119.52 49.56 119.84 49.56C120.187 49.56 120.587 49.6133 121.04 49.72C121.52 49.8 121.96 49.9867 122.36 50.28C122.76 50.5733 123.027 51.0267 123.16 51.64C123.294 52.2267 123.214 52.6933 122.92 53.04C122.654 53.36 122.307 53.5867 121.88 53.72C121.454 53.8533 121.067 53.9333 120.72 53.96C120.374 53.9867 120.2 54 120.2 54C120.2 54 120.027 54 119.68 54C119.334 53.9733 118.92 53.92 118.44 53.84C117.987 53.7333 117.574 53.56 117.2 53.32C116.827 53.0533 116.614 52.6667 116.56 52.16C116.454 51.1467 116.667 50.4667 117.2 50.12C117.76 49.7733 118.48 49.5867 119.36 49.56ZM136.4 48.2C136.4 48.2 136.227 48.2 135.88 48.2C135.56 48.2 135.187 48.1467 134.76 48.04C134.333 47.9333 133.947 47.7067 133.6 47.36C133.28 47.0133 133.12 46.4933 133.12 45.8C133.12 44.8667 133.32 44.2 133.72 43.8C134.147 43.4 134.587 43.1467 135.04 43.04C135.52 42.9333 135.84 42.8667 136 42.84C136.133 42.8133 136.32 42.8 136.56 42.8C136.8 42.8 137.04 42.6933 137.28 42.48C137.52 42.24 137.707 41.7867 137.84 41.12C138 40.4533 138.053 39.44 138 38.08C137.973 37.04 137.853 36.2667 137.64 35.76C137.453 35.2267 137.24 34.8667 137 34.68C136.76 34.4933 136.547 34.4 136.36 34.4C136.2 34.3733 136.12 34.36 136.12 34.36C136.12 34.3333 135.987 34.3733 135.72 34.48C135.453 34.56 135.187 34.7733 134.92 35.12C134.68 35.4667 134.587 36.0533 134.64 36.88C134.693 37.4933 134.773 38.08 134.88 38.64C134.987 39.1733 135.027 39.6533 135 40.08C134.973 40.48 134.773 40.8 134.4 41.04C134.053 41.2533 133.413 41.3467 132.48 41.32C131.573 41.2933 130.867 41.1333 130.36 40.84C129.853 40.52 129.493 40.1333 129.28 39.68C129.093 39.2 128.987 38.7067 128.96 38.2C128.933 37.6933 128.933 37.2267 128.96 36.8C128.987 36.3733 129.067 35.8533 129.2 35.24C129.36 34.6 129.667 33.9733 130.12 33.36C130.6 32.72 131.32 32.1867 132.28 31.76C133.24 31.3067 134.533 31.04 136.16 30.96C137.787 30.88 139.093 31.0133 140.08 31.36C141.067 31.68 141.813 32.1733 142.32 32.84C142.827 33.5067 143.173 34.2933 143.36 35.2C143.573 36.08 143.707 37.04 143.76 38.08C143.84 39.4667 143.68 40.7067 143.28 41.8C142.907 42.8667 142.4 43.76 141.76 44.48C141.12 45.1733 140.453 45.6667 139.76 45.96C139.76 45.96 139.733 46.08 139.68 46.32C139.653 46.56 139.547 46.84 139.36 47.16C139.173 47.4533 138.84 47.7067 138.36 47.92C137.907 48.1333 137.253 48.2267 136.4 48.2ZM136.04 49.56C136.04 49.56 136.2 49.56 136.52 49.56C136.867 49.56 137.267 49.6133 137.72 49.72C138.2 49.8 138.64 49.9867 139.04 50.28C139.44 50.5733 139.707 51.0267 139.84 51.64C139.973 52.2267 139.893 52.6933 139.6 53.04C139.333 53.36 138.987 53.5867 138.56 53.72C138.133 53.8533 137.747 53.9333 137.4 53.96C137.053 53.9867 136.88 54 136.88 54C136.88 54 136.707 54 136.36 54C136.013 53.9733 135.6 53.92 135.12 53.84C134.667 53.7333 134.253 53.56 133.88 53.32C133.507 53.0533 133.293 52.6667 133.24 52.16C133.133 51.1467 133.347 50.4667 133.88 50.12C134.44 49.7733 135.16 49.5867 136.04 49.56ZM21.69 99.4C21.5833 97.8267 21.4633 96.1867 21.33 94.48C21.1967 92.7467 21.0633 91.0933 20.93 89.52C20.8233 87.9467 20.73 86.6133 20.65 85.52C20.57 84.4 20.5033 83.68 20.45 83.36C20.37 82.7467 20.3967 82.3333 20.53 82.12C20.69 81.88 20.77 81.76 20.77 81.76C20.77 81.76 20.6767 81.6667 20.49 81.48C20.3033 81.2667 20.21 81.04 20.21 80.8C20.21 80.3733 20.4633 80.0267 20.97 79.76C21.5033 79.4933 22.1033 79.2933 22.77 79.16C23.4367 79.0267 24.0233 78.9333 24.53 78.88C25.0633 78.8267 25.33 78.8 25.33 78.8C25.33 78.8 25.5967 78.7867 26.13 78.76C26.6633 78.7333 27.3433 78.76 28.17 78.84C29.0233 78.92 29.93 79.1333 30.89 79.48C31.8767 79.8 32.81 80.32 33.69 81.04C34.5967 81.76 35.3567 82.7467 35.97 84C36.5833 85.2267 36.9567 86.8 37.09 88.72C37.25 90.9867 37.1433 92.8933 36.77 94.44C36.4233 95.9867 35.89 97.2533 35.17 98.24C34.4767 99.2 33.6767 99.9467 32.77 100.48C31.8633 101.013 30.9167 101.387 29.93 101.6C28.97 101.787 28.05 101.907 27.17 101.96C26.3167 101.987 25.57 102 24.93 102C23.9967 102 23.29 101.867 22.81 101.6C22.3567 101.333 22.05 101.04 21.89 100.72C21.7567 100.373 21.69 100.067 21.69 99.8C21.69 99.5333 21.69 99.4 21.69 99.4ZM25.97 82.4L27.73 98.6C27.73 98.6 27.85 98.5867 28.09 98.56C28.33 98.5333 28.6233 98.4133 28.97 98.2C29.3433 97.9867 29.69 97.6 30.01 97.04C30.3567 96.48 30.6233 95.6933 30.81 94.68C30.9967 93.64 31.0367 92.2933 30.93 90.64C30.8233 88.56 30.5967 86.9467 30.25 85.8C29.93 84.6267 29.53 83.7867 29.05 83.28C28.5967 82.7733 28.1033 82.48 27.57 82.4C27.0367 82.32 26.5033 82.32 25.97 82.4ZM45.9981 85.04C45.0648 85.04 44.3981 84.9467 43.9981 84.76C43.5981 84.5467 43.3581 84.3067 43.2781 84.04C43.2248 83.7733 43.2381 83.5467 43.3181 83.36C43.3981 83.1467 43.4381 83.04 43.4381 83.04C43.4381 83.04 43.5448 82.8533 43.7581 82.48C43.9981 82.08 44.2648 81.6267 44.5581 81.12C44.8781 80.5867 45.1715 80.0933 45.4381 79.64C45.7315 79.1867 45.9181 78.88 45.9981 78.72C46.1848 78.4267 46.6915 78.1467 47.5181 77.88C48.3448 77.6133 49.3315 77.6533 50.4781 78C51.2515 78.2133 51.7181 78.4667 51.8781 78.76C52.0648 79.0533 52.1181 79.3067 52.0381 79.52C51.9581 79.7333 51.9181 79.84 51.9181 79.84C51.9181 79.84 51.7848 80.0667 51.5181 80.52C51.2515 80.9467 50.9315 81.4533 50.5581 82.04C50.2115 82.6267 49.8915 83.1733 49.5981 83.68C49.3048 84.16 48.8648 84.4933 48.2781 84.68C47.7181 84.8667 47.1981 84.9733 46.7181 85C46.2381 85.0267 45.9981 85.04 45.9981 85.04ZM38.9981 88.16C38.9981 88.16 38.9981 88.04 38.9981 87.8C39.0248 87.56 39.1181 87.2933 39.2781 87C39.4381 86.68 39.7315 86.4 40.1581 86.16C40.6115 85.92 41.2515 85.8 42.0781 85.8C43.0915 85.8 43.8115 85.9467 44.2381 86.24C44.6915 86.5067 44.9581 86.84 45.0381 87.24C45.1448 87.6133 45.1715 87.9867 45.1181 88.36C45.0648 88.7067 45.0381 88.9467 45.0381 89.08C45.0381 89.1867 45.0381 89.5867 45.0381 90.28C45.0648 90.9467 45.1181 91.7467 45.1981 92.68C45.2781 93.6133 45.4115 94.5333 45.5981 95.44C45.7848 96.3467 46.0515 97.1067 46.3981 97.72C46.7448 98.3067 47.1981 98.5867 47.7581 98.56C48.3181 98.5333 48.6915 98.24 48.8781 97.68C49.0648 97.12 49.1315 96.4267 49.0781 95.6C49.0515 94.7733 48.9581 93.9467 48.7981 93.12C48.6381 92.2933 48.4781 91.5867 48.3181 91C48.1581 90.3867 48.0781 90.04 48.0781 89.96C48.0781 89.8533 48.0381 89.6667 47.9581 89.4C47.9048 89.1067 47.9048 88.7867 47.9581 88.44C48.0381 88.0933 48.2648 87.7733 48.6381 87.48C49.0115 87.1867 49.6248 87 50.4781 86.92C51.3315 86.84 51.9981 86.8933 52.4781 87.08C52.9848 87.24 53.3448 87.4533 53.5581 87.72C53.7981 87.9867 53.9448 88.24 53.9981 88.48C54.0515 88.6933 54.0781 88.8 54.0781 88.8C54.0781 88.8 54.1715 89.12 54.3581 89.76C54.5448 90.4 54.7181 91.2267 54.8781 92.24C55.0381 93.2267 55.0915 94.28 55.0381 95.4C55.0115 96.52 54.7715 97.5867 54.3181 98.6C53.8915 99.5867 53.1715 100.4 52.1581 101.04C51.1715 101.68 49.7848 102 47.9981 102C46.2115 102 44.7448 101.667 43.5981 101C42.4515 100.333 41.5448 99.48 40.8781 98.44C40.2381 97.3733 39.7715 96.2533 39.4781 95.08C39.1848 93.9067 39.0115 92.8 38.9581 91.76C38.9048 90.6933 38.8915 89.8267 38.9181 89.16C38.9715 88.4933 38.9981 88.16 38.9981 88.16ZM60.6506 99.36C60.2773 98.24 59.8906 97.0933 59.4906 95.92C59.0906 94.72 58.704 93.5867 58.3306 92.52C57.984 91.4267 57.6773 90.48 57.4106 89.68C57.144 88.88 56.9573 88.32 56.8506 88C56.6373 87.3333 56.7573 86.7733 57.2106 86.32C57.664 85.8667 58.544 85.64 59.8506 85.64C60.7306 85.64 61.384 85.7733 61.8106 86.04C62.2373 86.28 62.504 86.5333 62.6106 86.8C62.744 87.04 62.8106 87.16 62.8106 87.16L64.4906 94.04L64.7706 96.36L65.4106 93.12C65.4106 93.12 65.4773 92.9333 65.6106 92.56C65.744 92.16 65.9173 91.68 66.1306 91.12C66.344 90.5333 66.5573 89.9467 66.7706 89.36C66.984 88.7467 67.1706 88.2267 67.3306 87.8C67.6506 86.9467 68.0773 86.3867 68.6106 86.12C69.1706 85.8267 70.144 85.7067 71.5306 85.76C72.224 85.7867 72.7306 85.92 73.0506 86.16C73.3706 86.3733 73.5573 86.6267 73.6106 86.92C73.6906 87.1867 73.704 87.4267 73.6506 87.64C73.624 87.8533 73.6106 87.96 73.6106 87.96L67.9706 99.96C67.9706 99.96 67.864 100.133 67.6506 100.48C67.4373 100.8 67.0773 101.133 66.5706 101.48C66.0906 101.827 65.3973 102 64.4906 102C63.744 102 63.1173 101.867 62.6106 101.6C62.1306 101.333 61.744 101.027 61.4506 100.68C61.1573 100.333 60.944 100.027 60.8106 99.76C60.704 99.4933 60.6506 99.36 60.6506 99.36ZM79.2378 85.16C79.2378 85.16 79.0645 85.16 78.7178 85.16C78.3711 85.1333 77.9578 85.0533 77.4778 84.92C77.0245 84.76 76.6111 84.48 76.2378 84.08C75.8645 83.68 75.6645 83.08 75.6378 82.28C75.6111 81.48 75.7311 80.8933 75.9978 80.52C76.2645 80.12 76.5978 79.8533 76.9978 79.72C77.3978 79.56 77.7845 79.48 78.1578 79.48C78.5311 79.4533 78.7978 79.4267 78.9578 79.4C79.1178 79.3733 79.3845 79.4 79.7578 79.48C80.1311 79.5333 80.5178 79.68 80.9178 79.92C81.3178 80.1333 81.6511 80.4667 81.9178 80.92C82.1845 81.3467 82.2911 81.92 82.2378 82.64C82.1845 83.3333 81.9978 83.8667 81.6778 84.24C81.3845 84.5867 81.0378 84.8267 80.6378 84.96C80.2645 85.0667 79.9311 85.1333 79.6378 85.16C79.3711 85.16 79.2378 85.16 79.2378 85.16ZM77.8378 99.52L76.8778 90.4C76.8778 90.4 76.8111 90.2667 76.6778 90C76.5711 89.7067 76.4911 89.5067 76.4378 89.4C76.4111 89.32 76.3578 89.16 76.2778 88.92C76.2245 88.6533 76.2911 88.3733 76.4778 88.08C76.6911 87.7867 77.1445 87.5733 77.8378 87.44C78.5578 87.3067 79.3045 87.2667 80.0778 87.32C80.8511 87.3733 81.5311 87.6133 82.1178 88.04C82.7311 88.44 83.1045 89.1467 83.2378 90.16C83.3445 90.9067 83.4511 91.8 83.5578 92.84C83.6645 93.8533 83.7578 94.8533 83.8378 95.84C83.9445 96.8 84.0245 97.6133 84.0778 98.28C84.1578 98.92 84.1978 99.24 84.1978 99.24C84.1978 99.24 84.2111 99.3867 84.2378 99.68C84.2645 99.9467 84.2245 100.267 84.1178 100.64C84.0111 100.987 83.7445 101.307 83.3178 101.6C82.9178 101.867 82.2645 102 81.3578 102C80.4511 102 79.7578 101.88 79.2778 101.64C78.7978 101.373 78.4511 101.08 78.2378 100.76C78.0511 100.44 77.9311 100.16 77.8778 99.92C77.8511 99.6533 77.8378 99.52 77.8378 99.52ZM99.7009 75.92C99.7009 75.92 99.8609 75.9467 100.181 76C100.528 76.0267 100.914 76.1067 101.341 76.24C101.768 76.3467 102.154 76.5333 102.501 76.8C102.874 77.04 103.074 77.3867 103.101 77.84C103.128 78.1333 103.168 78.7733 103.221 79.76C103.274 80.72 103.328 81.8667 103.381 83.2C103.461 84.5333 103.528 85.92 103.581 87.36C103.661 88.7733 103.728 90.1067 103.781 91.36C103.834 92.5867 103.874 93.5867 103.901 94.36C103.954 95.1333 103.981 95.52 103.981 95.52C103.981 95.52 103.968 95.68 103.941 96C103.941 96.32 103.861 96.72 103.701 97.2C103.568 97.68 103.314 98.1467 102.941 98.6C102.141 99.5867 101.128 100.4 99.9009 101.04C98.6743 101.68 96.9943 102 94.8609 102C93.4476 102 92.0876 101.733 90.7809 101.2C89.5009 100.667 88.4476 99.8267 87.6209 98.68C86.8209 97.5067 86.4343 95.9867 86.4609 94.12C86.4876 92.7067 86.7943 91.4667 87.3809 90.4C87.9943 89.3333 88.7943 88.4533 89.7809 87.76C90.7676 87.04 91.8609 86.5067 93.0609 86.16C94.2876 85.8133 95.5143 85.64 96.7409 85.64L96.4609 78.72C96.4609 78.72 96.4343 78.6 96.3809 78.36C96.3276 78.0933 96.3543 77.7867 96.4609 77.44C96.5943 77.0933 96.9009 76.7733 97.3809 76.48C97.8609 76.1867 98.6343 76 99.7009 75.92ZM96.8609 89.12C96.2476 89.0667 95.6609 89.2933 95.1009 89.8C94.5409 90.3067 94.0743 90.96 93.7009 91.76C93.3543 92.5333 93.1809 93.3067 93.1809 94.08C93.1809 95.2267 93.3676 96.2133 93.7409 97.04C94.1409 97.8667 94.6609 98.28 95.3009 98.28C95.7276 98.28 96.0876 98.1067 96.3809 97.76C96.6743 97.4133 96.9009 97.0667 97.0609 96.72C97.2209 96.3467 97.3009 96.16 97.3009 96.16L96.8609 89.12ZM113.563 85.48C114.896 85.4533 116.029 85.5733 116.963 85.84C117.896 86.08 118.669 86.3733 119.283 86.72C119.896 87.0667 120.376 87.3733 120.723 87.64C121.069 87.9067 121.323 88.04 121.483 88.04C121.776 88.0667 121.989 88.2133 122.123 88.48C122.256 88.72 122.323 88.84 122.323 88.84C122.323 88.84 122.363 89.1067 122.443 89.64C122.523 90.1733 122.616 90.8533 122.723 91.68C122.856 92.5067 122.976 93.3733 123.083 94.28C123.189 95.1867 123.283 96.04 123.363 96.84C123.443 97.64 123.483 98.2667 123.483 98.72C123.483 99.4667 123.429 100.067 123.323 100.52C123.243 100.973 122.976 101.32 122.523 101.56C122.069 101.773 121.323 101.92 120.283 102C119.509 102.053 118.949 102.04 118.603 101.96C118.256 101.88 118.043 101.787 117.963 101.68C117.883 101.573 117.843 101.52 117.843 101.52C117.603 101.707 117.203 101.84 116.643 101.92C116.109 101.973 115.603 102 115.122 102C114.643 102 114.403 102 114.403 102C114.403 102 114.096 101.96 113.483 101.88C112.869 101.773 112.109 101.573 111.203 101.28C110.323 100.96 109.429 100.493 108.523 99.88C107.643 99.24 106.909 98.4 106.323 97.36C105.736 96.2933 105.456 94.9733 105.483 93.4C105.509 91.8267 105.803 90.5467 106.363 89.56C106.923 88.5467 107.603 87.76 108.403 87.2C109.203 86.64 109.989 86.24 110.763 86C111.563 85.76 112.229 85.6133 112.763 85.56C113.296 85.5067 113.563 85.48 113.563 85.48ZM116.563 89.6C116.429 89.4133 116.136 89.2133 115.683 89C115.256 88.76 114.843 88.56 114.443 88.4C114.069 88.24 113.883 88.1867 113.883 88.24C113.883 88.2667 113.736 88.4933 113.443 88.92C113.176 89.32 112.896 89.92 112.603 90.72C112.336 91.4933 112.189 92.4267 112.163 93.52C112.136 94.6133 112.283 95.56 112.603 96.36C112.923 97.16 113.309 97.7733 113.763 98.2C114.243 98.6267 114.683 98.84 115.083 98.84C115.376 98.84 115.656 98.7067 115.923 98.44C116.189 98.1467 116.416 97.8267 116.603 97.48C116.789 97.1067 116.936 96.7867 117.043 96.52C117.149 96.2533 117.203 96.12 117.203 96.12L116.563 89.6ZM134.007 95.6C132.007 95.5467 130.447 95.3467 129.327 95C128.207 94.6533 127.407 94.24 126.927 93.76C126.474 93.28 126.194 92.8133 126.087 92.36C125.981 91.88 125.927 91.5067 125.927 91.24C125.927 90.9733 125.967 90.56 126.047 90C126.127 89.44 126.381 88.8533 126.807 88.24C127.234 87.6267 127.967 87.0933 129.007 86.64C130.074 86.1867 131.581 85.9333 133.527 85.88C135.661 85.8267 137.301 85.9467 138.447 86.24C139.594 86.5333 140.407 86.88 140.887 87.28C141.394 87.68 141.701 88.04 141.807 88.36C141.914 88.6533 141.967 88.8 141.967 88.8C141.967 89.1467 141.927 89.5067 141.847 89.88C141.767 90.2267 141.527 90.52 141.127 90.76C140.754 90.9733 140.101 91.0667 139.167 91.04C138.421 91.0133 137.861 90.9467 137.487 90.84C137.114 90.7333 136.834 90.6133 136.647 90.48C136.487 90.32 136.314 90.16 136.127 90C135.967 89.84 135.714 89.7067 135.367 89.6C135.047 89.4933 134.527 89.4267 133.807 89.4C132.927 89.3733 132.261 89.44 131.807 89.6C131.381 89.7333 131.087 89.9067 130.927 90.12C130.794 90.3333 130.714 90.52 130.687 90.68C130.687 90.8133 130.687 90.88 130.687 90.88C130.687 90.88 130.714 90.9867 130.767 91.2C130.847 91.4133 131.114 91.6267 131.567 91.84C132.047 92.0533 132.901 92.1733 134.127 92.2C136.447 92.28 138.221 92.5067 139.447 92.88C140.701 93.2267 141.581 93.64 142.087 94.12C142.621 94.6 142.927 95.08 143.007 95.56C143.114 96.0133 143.167 96.3733 143.167 96.64C143.167 96.9067 143.074 97.32 142.887 97.88C142.727 98.44 142.367 99.0267 141.807 99.64C141.247 100.253 140.381 100.787 139.207 101.24C138.061 101.693 136.514 101.947 134.567 102C132.461 102.053 130.821 101.933 129.647 101.64C128.501 101.347 127.674 101 127.167 100.6C126.687 100.2 126.394 99.8533 126.287 99.56C126.181 99.24 126.127 99.08 126.127 99.08C126.127 98.7067 126.167 98.3467 126.247 98C126.354 97.6533 126.594 97.3733 126.967 97.16C127.367 96.92 128.021 96.8133 128.927 96.84C129.701 96.8667 130.261 96.9333 130.607 97.04C130.981 97.1467 131.261 97.28 131.447 97.44C131.634 97.5733 131.807 97.72 131.967 97.88C132.127 98.04 132.381 98.1733 132.727 98.28C133.074 98.3867 133.594 98.4533 134.287 98.48C135.167 98.5067 135.821 98.4533 136.247 98.32C136.701 98.16 137.007 97.9733 137.167 97.76C137.327 97.5467 137.407 97.3733 137.407 97.24C137.407 97.08 137.407 97 137.407 97C137.407 97 137.381 96.8933 137.327 96.68C137.274 96.44 137.007 96.2133 136.527 96C136.074 95.76 135.234 95.6267 134.007 95.6ZM168.646 75.92C168.646 75.92 168.806 75.9467 169.126 76C169.473 76.0267 169.86 76.1067 170.286 76.24C170.713 76.3467 171.1 76.5333 171.446 76.8C171.82 77.04 172.02 77.3867 172.046 77.84C172.073 78.1333 172.113 78.7733 172.166 79.76C172.22 80.72 172.273 81.8667 172.326 83.2C172.406 84.5333 172.473 85.92 172.526 87.36C172.606 88.7733 172.673 90.1067 172.726 91.36C172.78 92.5867 172.82 93.5867 172.846 94.36C172.9 95.1333 172.926 95.52 172.926 95.52C172.926 95.52 172.913 95.68 172.886 96C172.886 96.32 172.806 96.72 172.646 97.2C172.513 97.68 172.26 98.1467 171.886 98.6C171.086 99.5867 170.073 100.4 168.846 101.04C167.62 101.68 165.94 102 163.806 102C162.393 102 161.033 101.733 159.726 101.2C158.446 100.667 157.393 99.8267 156.566 98.68C155.766 97.5067 155.38 95.9867 155.406 94.12C155.433 92.7067 155.74 91.4667 156.326 90.4C156.94 89.3333 157.74 88.4533 158.726 87.76C159.713 87.04 160.806 86.5067 162.006 86.16C163.233 85.8133 164.46 85.64 165.686 85.64L165.406 78.72C165.406 78.72 165.38 78.6 165.326 78.36C165.273 78.0933 165.3 77.7867 165.406 77.44C165.54 77.0933 165.846 76.7733 166.326 76.48C166.806 76.1867 167.58 76 168.646 75.92ZM165.806 89.12C165.193 89.0667 164.606 89.2933 164.046 89.8C163.486 90.3067 163.02 90.96 162.646 91.76C162.3 92.5333 162.126 93.3067 162.126 94.08C162.126 95.2267 162.313 96.2133 162.686 97.04C163.086 97.8667 163.606 98.28 164.246 98.28C164.673 98.28 165.033 98.1067 165.326 97.76C165.62 97.4133 165.846 97.0667 166.006 96.72C166.166 96.3467 166.246 96.16 166.246 96.16L165.806 89.12ZM190.508 89.92C190.428 91.2533 190.054 92.3333 189.388 93.16C188.721 93.96 187.908 94.5733 186.948 95C186.014 95.4 185.081 95.68 184.148 95.84C183.214 95.9733 182.428 96.04 181.788 96.04C181.174 96.04 180.868 96.04 180.868 96.04C181.028 96.9733 181.254 97.64 181.548 98.04C181.841 98.44 182.161 98.6667 182.508 98.72C182.881 98.7733 183.228 98.7467 183.548 98.64C183.868 98.5067 184.121 98.36 184.308 98.2C184.521 98.04 184.628 97.96 184.628 97.96C184.628 97.96 184.774 97.84 185.068 97.6C185.361 97.36 185.814 97.1333 186.428 96.92C187.068 96.68 187.868 96.56 188.828 96.56C189.921 96.56 190.654 96.7067 191.028 97C191.428 97.2667 191.614 97.5867 191.588 97.96C191.588 98.3067 191.508 98.6267 191.348 98.92C191.214 99.1867 191.148 99.32 191.148 99.32C191.148 99.32 191.028 99.4533 190.788 99.72C190.574 99.96 190.174 100.253 189.588 100.6C189.001 100.947 188.188 101.267 187.148 101.56C186.108 101.827 184.774 101.973 183.148 102C181.574 102.027 180.254 101.813 179.188 101.36C178.121 100.907 177.241 100.32 176.548 99.6C175.854 98.8533 175.321 98.08 174.948 97.28C174.601 96.4533 174.348 95.6933 174.188 95C174.054 94.28 173.988 93.72 173.988 93.32C173.988 92.92 174.014 92.4 174.068 91.76C174.148 91.12 174.321 90.4533 174.588 89.76C174.881 89.04 175.321 88.36 175.908 87.72C176.494 87.08 177.294 86.56 178.308 86.16C179.348 85.76 180.668 85.5467 182.268 85.52C184.268 85.4933 185.828 85.6667 186.948 86.04C188.068 86.4133 188.881 86.8667 189.388 87.4C189.894 87.9333 190.201 88.44 190.308 88.92C190.441 89.4 190.508 89.7333 190.508 89.92ZM180.308 93.28C181.934 93.1467 183.148 92.8 183.948 92.24C184.748 91.68 185.214 91.0533 185.348 90.36C185.481 89.6667 185.348 89.08 184.948 88.6C184.574 88.0933 184.001 87.8667 183.228 87.92C182.454 87.9467 181.868 88.24 181.468 88.8C181.068 89.3333 180.788 89.96 180.628 90.68C180.468 91.3733 180.374 91.9867 180.348 92.52C180.321 93.0267 180.308 93.28 180.308 93.28ZM210.276 102C210.276 102 210.13 102 209.836 102C209.543 102 209.17 101.933 208.716 101.8C208.29 101.64 207.863 101.373 207.436 101C207.01 100.6 206.676 100.027 206.436 99.28C206.196 98.56 205.903 97.64 205.556 96.52C205.21 95.3733 204.903 94.1333 204.636 92.8C204.37 91.44 204.21 90.0533 204.156 88.64C204.13 87.2 204.29 85.8133 204.636 84.48C204.983 83.1467 205.61 81.96 206.516 80.92C207.316 79.9867 208.196 79.3467 209.156 79C210.143 78.6533 211.076 78.48 211.956 78.48C212.836 78.48 213.556 78.5333 214.116 78.64C214.703 78.7467 214.996 78.8 214.996 78.8C214.996 78.8 215.13 78.8667 215.396 79C215.663 79.1067 215.93 79.2667 216.196 79.48C216.463 79.6933 216.61 79.9333 216.636 80.2C216.663 80.44 216.436 80.6933 215.956 80.96C215.316 81.3067 214.676 81.5733 214.036 81.76C213.396 81.92 212.823 82.1333 212.316 82.4C211.81 82.64 211.423 83.08 211.156 83.72C210.836 84.4933 210.61 85.2 210.476 85.84C210.343 86.48 210.276 87.1867 210.276 87.96C210.276 88.7333 210.33 89.7067 210.436 90.88C210.436 90.88 210.663 90.8267 211.116 90.72C211.596 90.5867 212.143 90.4933 212.756 90.44C213.396 90.3867 213.983 90.44 214.516 90.6C215.076 90.76 215.436 91.1067 215.596 91.64C215.756 92.1467 215.623 92.56 215.196 92.88C214.77 93.2 214.236 93.4533 213.596 93.64C212.956 93.8 212.383 93.92 211.876 94C211.37 94.0533 211.116 94.08 211.116 94.08L212.916 99.72C212.916 99.72 212.943 99.84 212.996 100.08C213.05 100.293 213.036 100.56 212.956 100.88C212.876 101.173 212.636 101.44 212.236 101.68C211.836 101.893 211.183 102 210.276 102ZM226.573 85.04C225.64 85.04 224.973 84.9467 224.573 84.76C224.173 84.5467 223.933 84.3067 223.853 84.04C223.8 83.7733 223.813 83.5467 223.893 83.36C223.973 83.1467 224.013 83.04 224.013 83.04C224.013 83.04 224.12 82.8533 224.333 82.48C224.573 82.08 224.84 81.6267 225.133 81.12C225.453 80.5867 225.746 80.0933 226.013 79.64C226.306 79.1867 226.493 78.88 226.573 78.72C226.76 78.4267 227.266 78.1467 228.093 77.88C228.92 77.6133 229.906 77.6533 231.053 78C231.826 78.2133 232.293 78.4667 232.453 78.76C232.64 79.0533 232.693 79.3067 232.613 79.52C232.533 79.7333 232.493 79.84 232.493 79.84C232.493 79.84 232.36 80.0667 232.093 80.52C231.826 80.9467 231.506 81.4533 231.133 82.04C230.786 82.6267 230.466 83.1733 230.173 83.68C229.88 84.16 229.44 84.4933 228.853 84.68C228.293 84.8667 227.773 84.9733 227.293 85C226.813 85.0267 226.573 85.04 226.573 85.04ZM234.533 90.4C234.453 91.68 234.08 92.7067 233.413 93.48C232.746 94.2533 231.933 94.84 230.973 95.24C230.013 95.64 229.066 95.9067 228.133 96.04C227.2 96.1733 226.413 96.2533 225.773 96.28C225.16 96.28 224.853 96.28 224.853 96.28C225.013 97.16 225.24 97.8 225.533 98.2C225.826 98.5733 226.146 98.7867 226.493 98.84C226.866 98.8933 227.213 98.8667 227.533 98.76C227.853 98.6267 228.106 98.4933 228.293 98.36C228.506 98.2 228.613 98.12 228.613 98.12C228.613 98.12 228.76 98.0133 229.053 97.8C229.346 97.56 229.8 97.3333 230.413 97.12C231.053 96.88 231.853 96.76 232.813 96.76C233.906 96.76 234.653 96.8933 235.053 97.16C235.453 97.4267 235.64 97.7333 235.613 98.08C235.613 98.4267 235.533 98.7333 235.373 99C235.24 99.2667 235.173 99.4 235.173 99.4C235.173 99.4 235.053 99.5333 234.813 99.8C234.573 100.04 234.16 100.333 233.573 100.68C232.986 101 232.173 101.293 231.133 101.56C230.093 101.827 228.76 101.973 227.133 102C225.56 102.027 224.226 101.827 223.133 101.4C222.066 100.947 221.186 100.373 220.493 99.68C219.826 98.9867 219.306 98.2533 218.933 97.48C218.56 96.68 218.306 95.9467 218.173 95.28C218.04 94.5867 217.973 94.04 217.973 93.64C217.973 93.2667 218 92.7733 218.053 92.16C218.133 91.5467 218.306 90.9067 218.573 90.24C218.866 89.5467 219.306 88.8933 219.893 88.28C220.48 87.6667 221.28 87.1733 222.293 86.8C223.333 86.4 224.653 86.1867 226.253 86.16C228.253 86.16 229.813 86.3333 230.933 86.68C232.053 87.0267 232.866 87.4667 233.373 88C233.906 88.5067 234.226 88.9867 234.333 89.44C234.466 89.8933 234.533 90.2133 234.533 90.4ZM224.293 93.6C225.92 93.4933 227.133 93.1733 227.933 92.64C228.733 92.08 229.2 91.48 229.333 90.84C229.493 90.1733 229.373 89.6 228.973 89.12C228.573 88.64 227.986 88.4267 227.213 88.48C226.44 88.5067 225.853 88.7867 225.453 89.32C225.053 89.8533 224.773 90.4533 224.613 91.12C224.453 91.7867 224.36 92.3733 224.333 92.88C224.306 93.36 224.293 93.6 224.293 93.6Z" fill="black"/>
</svg>
