<svg width="256" height="132" viewBox="0 0 256 132" fill="none" xmlns="http://www.w3.org/2000/svg">
<rect x="0.5" y="0.5" width="255" height="131" rx="23.5" fill="#FDD867"/>
<rect x="0.5" y="0.5" width="255" height="131" rx="23.5" stroke="black"/>
<path d="M128.06 48.2C128.06 48.2 127.887 48.2 127.54 48.2C127.22 48.2 126.847 48.1467 126.42 48.04C125.993 47.9333 125.607 47.7067 125.26 47.36C124.94 47.0133 124.78 46.4933 124.78 45.8C124.78 44.8667 124.98 44.2 125.38 43.8C125.807 43.4 126.247 43.1467 126.7 43.04C127.18 42.9333 127.5 42.8667 127.66 42.84C127.793 42.8133 127.98 42.8 128.22 42.8C128.46 42.8 128.7 42.6933 128.94 42.48C129.18 42.24 129.367 41.7867 129.5 41.12C129.66 40.4533 129.713 39.44 129.66 38.08C129.633 37.04 129.513 36.2667 129.3 35.76C129.113 35.2267 128.9 34.8667 128.66 34.68C128.42 34.4933 128.207 34.4 128.02 34.4C127.86 34.3733 127.78 34.36 127.78 34.36C127.78 34.3333 127.647 34.3733 127.38 34.48C127.113 34.56 126.847 34.7733 126.58 35.12C126.34 35.4667 126.247 36.0533 126.3 36.88C126.353 37.4933 126.433 38.08 126.54 38.64C126.647 39.1733 126.687 39.6533 126.66 40.08C126.633 40.48 126.433 40.8 126.06 41.04C125.713 41.2533 125.073 41.3467 124.14 41.32C123.233 41.2933 122.527 41.1333 122.02 40.84C121.513 40.52 121.153 40.1333 120.94 39.68C120.753 39.2 120.647 38.7067 120.62 38.2C120.593 37.6933 120.593 37.2267 120.62 36.8C120.647 36.3733 120.727 35.8533 120.86 35.24C121.02 34.6 121.327 33.9733 121.78 33.36C122.26 32.72 122.98 32.1867 123.94 31.76C124.9 31.3067 126.193 31.04 127.82 30.96C129.447 30.88 130.753 31.0133 131.74 31.36C132.727 31.68 133.473 32.1733 133.98 32.84C134.487 33.5067 134.833 34.2933 135.02 35.2C135.233 36.08 135.367 37.04 135.42 38.08C135.5 39.4667 135.34 40.7067 134.94 41.8C134.567 42.8667 134.06 43.76 133.42 44.48C132.78 45.1733 132.113 45.6667 131.42 45.96C131.42 45.96 131.393 46.08 131.34 46.32C131.313 46.56 131.207 46.84 131.02 47.16C130.833 47.4533 130.5 47.7067 130.02 47.92C129.567 48.1333 128.913 48.2267 128.06 48.2ZM127.7 49.56C127.7 49.56 127.86 49.56 128.18 49.56C128.527 49.56 128.927 49.6133 129.38 49.72C129.86 49.8 130.3 49.9867 130.7 50.28C131.1 50.5733 131.367 51.0267 131.5 51.64C131.633 52.2267 131.553 52.6933 131.26 53.04C130.993 53.36 130.647 53.5867 130.22 53.72C129.793 53.8533 129.407 53.9333 129.06 53.96C128.713 53.9867 128.54 54 128.54 54C128.54 54 128.367 54 128.02 54C127.673 53.9733 127.26 53.92 126.78 53.84C126.327 53.7333 125.913 53.56 125.54 53.32C125.167 53.0533 124.953 52.6667 124.9 52.16C124.793 51.1467 125.007 50.4667 125.54 50.12C126.1 49.7733 126.82 49.5867 127.7 49.56ZM51.4013 102C50.3879 102 49.6546 101.853 49.2013 101.56C48.7479 101.24 48.4679 100.933 48.3613 100.64C48.2546 100.347 48.2013 100.2 48.2013 100.2C48.2013 100.2 48.1879 99.88 48.1613 99.24C48.1613 98.5733 48.1479 97.7067 48.1213 96.64C48.1213 95.5733 48.1079 94.4 48.0813 93.12C48.0546 91.84 48.0279 90.56 48.0013 89.28C48.0013 88 47.9879 86.8267 47.9613 85.76C47.9346 84.6933 47.9079 83.84 47.8813 83.2C47.8813 82.5333 47.8813 82.2 47.8813 82.2C47.8546 82.2 47.7079 82.0667 47.4413 81.8C47.2013 81.5333 47.0679 81.2533 47.0413 80.96C47.0413 80.7467 47.2946 80.44 47.8013 80.04C48.3079 79.64 49.1613 79.3067 50.3613 79.04C51.5879 78.7467 53.2679 78.6933 55.4013 78.88C57.3213 79.04 58.8279 79.36 59.9213 79.84C61.0413 80.2933 61.8546 80.7867 62.3613 81.32C62.8679 81.8267 63.1879 82.28 63.3213 82.68C63.4546 83.0533 63.5213 83.24 63.5213 83.24C63.5213 83.24 63.5346 83.28 63.5613 83.36C63.6146 83.44 63.6546 83.6933 63.6813 84.12C63.7346 84.52 63.7746 85.1867 63.8013 86.12C63.8279 87.0533 63.8279 88.36 63.8013 90.04C63.7746 91.4 63.4546 92.48 62.8413 93.28C62.2546 94.08 61.5213 94.68 60.6413 95.08C59.7613 95.4533 58.8813 95.7067 58.0013 95.84C57.1479 95.9467 56.4279 96 55.8413 96C55.2546 95.9733 54.9613 95.96 54.9613 95.96C54.9613 95.96 54.9613 96.2533 54.9613 96.84C54.9879 97.4 54.9879 98.3467 54.9613 99.68C54.9613 100.347 54.7746 100.853 54.4013 101.2C54.0546 101.52 53.6413 101.733 53.1613 101.84C52.7079 101.947 52.2946 102 51.9213 102C51.5746 102 51.4013 102 51.4013 102ZM54.5613 82.6L54.9213 92.52C54.9213 92.52 55.0946 92.5067 55.4413 92.48C55.7879 92.4267 56.1879 92.2933 56.6413 92.08C57.0946 91.8667 57.4813 91.5067 57.8013 91C58.1479 90.4667 58.2946 89.72 58.2413 88.76C58.1879 87.48 58.1346 86.52 58.0813 85.88C58.0279 85.24 57.9879 84.8267 57.9613 84.64C57.9613 84.4267 57.9613 84.32 57.9613 84.32C57.9613 84.32 57.9346 84.2133 57.8813 84C57.8546 83.76 57.7479 83.5067 57.5613 83.24C57.3746 82.9733 57.0413 82.7733 56.5612 82.64C56.1079 82.48 55.4413 82.4667 54.5613 82.6ZM81.7188 89.92C81.6388 91.2533 81.2654 92.3333 80.5988 93.16C79.9321 93.96 79.1188 94.5733 78.1588 95C77.2254 95.4 76.2921 95.68 75.3588 95.84C74.4254 95.9733 73.6388 96.04 72.9988 96.04C72.3854 96.04 72.0788 96.04 72.0788 96.04C72.2388 96.9733 72.4654 97.64 72.7588 98.04C73.0521 98.44 73.3721 98.6667 73.7188 98.72C74.0921 98.7733 74.4388 98.7467 74.7588 98.64C75.0788 98.5067 75.3321 98.36 75.5188 98.2C75.7321 98.04 75.8388 97.96 75.8388 97.96C75.8388 97.96 75.9854 97.84 76.2788 97.6C76.5721 97.36 77.0254 97.1333 77.6388 96.92C78.2788 96.68 79.0788 96.56 80.0388 96.56C81.1321 96.56 81.8654 96.7067 82.2388 97C82.6388 97.2667 82.8254 97.5867 82.7988 97.96C82.7988 98.3067 82.7188 98.6267 82.5588 98.92C82.4254 99.1867 82.3588 99.32 82.3588 99.32C82.3588 99.32 82.2388 99.4533 81.9988 99.72C81.7854 99.96 81.3854 100.253 80.7988 100.6C80.2121 100.947 79.3988 101.267 78.3588 101.56C77.3188 101.827 75.9854 101.973 74.3588 102C72.7854 102.027 71.4654 101.813 70.3988 101.36C69.3321 100.907 68.4521 100.32 67.7588 99.6C67.0654 98.8533 66.5321 98.08 66.1588 97.28C65.8121 96.4533 65.5588 95.6933 65.3988 95C65.2654 94.28 65.1988 93.72 65.1988 93.32C65.1988 92.92 65.2254 92.4 65.2788 91.76C65.3588 91.12 65.5321 90.4533 65.7988 89.76C66.0921 89.04 66.5321 88.36 67.1188 87.72C67.7054 87.08 68.5054 86.56 69.5188 86.16C70.5588 85.76 71.8788 85.5467 73.4788 85.52C75.4788 85.4933 77.0388 85.6667 78.1588 86.04C79.2788 86.4133 80.0921 86.8667 80.5988 87.4C81.1054 87.9333 81.4121 88.44 81.5188 88.92C81.6521 89.4 81.7188 89.7333 81.7188 89.92ZM71.5188 93.28C73.1454 93.1467 74.3588 92.8 75.1588 92.24C75.9588 91.68 76.4254 91.0533 76.5588 90.36C76.6921 89.6667 76.5588 89.08 76.1588 88.6C75.7854 88.0933 75.2121 87.8667 74.4388 87.92C73.6654 87.9467 73.0788 88.24 72.6788 88.8C72.2788 89.3333 71.9988 89.96 71.8388 90.68C71.6788 91.3733 71.5854 91.9867 71.5588 92.52C71.5321 93.0267 71.5188 93.28 71.5188 93.28ZM86.5766 99.28C86.5766 98.9867 86.5366 98.48 86.4566 97.76C86.3766 97.04 86.2699 96.2267 86.1366 95.32C86.0299 94.3867 85.9099 93.4667 85.7766 92.56C85.6432 91.6267 85.4966 90.8 85.3366 90.08C85.2032 89.3333 85.0832 88.8 84.9766 88.48C84.7099 87.68 84.8566 87.12 85.4166 86.8C86.0032 86.4533 86.8166 86.2267 87.8566 86.12C88.8966 86.0133 89.6432 86.0933 90.0966 86.36C90.5766 86.6 90.8166 86.72 90.8166 86.72C91.2166 86.32 91.8699 86.04 92.7766 85.88C93.7099 85.72 94.6832 85.6533 95.6966 85.68C97.0032 85.7067 97.9499 85.9067 98.5366 86.28C99.1232 86.6533 99.4166 87.0533 99.4166 87.48C99.4166 87.8 99.3766 88.04 99.2966 88.2C99.2166 88.36 98.8966 88.52 98.3366 88.68C97.8032 88.8133 96.8299 89.0533 95.4166 89.4C94.5899 89.5867 93.9766 90.04 93.5766 90.76C93.1766 91.4533 92.9232 92.2667 92.8166 93.2C92.7366 94.1067 92.7366 95.0133 92.8166 95.92C92.8966 96.8 92.9899 97.5467 93.0966 98.16C93.2032 98.7467 93.2566 99.0667 93.2566 99.12C93.2566 99.1733 93.2699 99.36 93.2966 99.68C93.3499 99.9733 93.3099 100.307 93.1766 100.68C93.0699 101.027 92.7899 101.333 92.3366 101.6C91.8832 101.867 91.1632 102 90.1766 102C89.1899 102 88.4432 101.867 87.9366 101.6C87.4299 101.307 87.0832 100.987 86.8966 100.64C86.7099 100.293 86.6032 99.9867 86.5766 99.72C86.5766 99.4267 86.5766 99.28 86.5766 99.28ZM113.145 101C113.145 101 112.945 101.08 112.545 101.24C112.171 101.4 111.665 101.573 111.025 101.76C110.385 101.92 109.665 102 108.865 102C108.278 102 107.545 101.92 106.665 101.76C105.811 101.573 104.958 101.227 104.105 100.72C103.251 100.213 102.545 99.48 101.985 98.52C101.451 97.56 101.198 96.28 101.225 94.68C101.278 93.08 101.638 91.72 102.305 90.6C102.971 89.4533 103.825 88.5067 104.865 87.76C105.905 87.0133 106.998 86.4533 108.145 86.08C109.318 85.7067 110.411 85.4933 111.425 85.44C112.785 85.36 113.931 85.5067 114.865 85.88C115.798 86.2267 116.505 86.64 116.985 87.12C117.465 87.5733 117.705 87.9467 117.705 88.24C117.705 88.4533 117.798 88.9467 117.985 89.72C118.171 90.4933 118.371 91.4533 118.585 92.6C118.825 93.72 119.038 94.96 119.225 96.32C119.411 97.6533 119.518 99.0133 119.545 100.4C119.571 101.787 119.531 103.08 119.425 104.28C119.345 105.507 119.105 106.587 118.705 107.52C118.331 108.48 117.691 109.227 116.785 109.76C115.878 110.32 114.625 110.613 113.025 110.64C110.865 110.667 109.038 110.413 107.545 109.88C106.078 109.373 104.931 108.787 104.105 108.12C103.278 107.48 102.785 106.973 102.625 106.6C102.465 106.227 102.385 105.853 102.385 105.48C102.411 105.107 102.611 104.8 102.985 104.56C103.385 104.32 104.051 104.2 104.985 104.2C105.918 104.2 106.611 104.28 107.065 104.44C107.545 104.627 107.891 104.827 108.105 105.04C108.318 105.253 108.505 105.427 108.665 105.56C108.905 105.747 109.265 106.053 109.745 106.48C110.251 106.933 110.798 107.16 111.385 107.16C111.785 107.16 112.131 106.88 112.425 106.32C112.718 105.76 112.931 105.013 113.065 104.08C113.198 103.147 113.225 102.12 113.145 101ZM112.145 88.36C111.238 88.44 110.438 88.84 109.745 89.56C109.078 90.28 108.545 91.1467 108.145 92.16C107.745 93.1733 107.518 94.1733 107.465 95.16C107.438 96.1467 107.625 96.9733 108.025 97.64C108.425 98.28 109.078 98.6 109.985 98.6C110.891 98.6 111.571 98.2933 112.025 97.68C112.505 97.0667 112.811 96.32 112.945 95.44C113.105 94.5333 113.158 93.6133 113.105 92.68C113.078 91.72 113.011 90.8933 112.905 90.2C112.798 89.5067 112.745 89.0667 112.745 88.88C112.718 88.5867 112.611 88.4267 112.425 88.4C112.238 88.3733 112.145 88.36 112.145 88.36ZM121.459 88.16C121.459 88.16 121.459 88.04 121.459 87.8C121.486 87.56 121.579 87.2933 121.739 87C121.899 86.68 122.192 86.4 122.619 86.16C123.072 85.92 123.712 85.8 124.539 85.8C125.552 85.8 126.272 85.9467 126.699 86.24C127.152 86.5067 127.419 86.84 127.499 87.24C127.606 87.6133 127.632 87.9867 127.579 88.36C127.526 88.7067 127.499 88.9467 127.499 89.08C127.499 89.1867 127.499 89.5867 127.499 90.28C127.526 90.9467 127.579 91.7467 127.659 92.68C127.739 93.6133 127.872 94.5333 128.059 95.44C128.246 96.3467 128.512 97.1067 128.859 97.72C129.206 98.3067 129.659 98.5867 130.219 98.56C130.779 98.5333 131.152 98.24 131.339 97.68C131.526 97.12 131.592 96.4267 131.539 95.6C131.512 94.7733 131.419 93.9467 131.259 93.12C131.099 92.2933 130.939 91.5867 130.779 91C130.619 90.3867 130.539 90.04 130.539 89.96C130.539 89.8533 130.499 89.6667 130.419 89.4C130.366 89.1067 130.366 88.7867 130.419 88.44C130.499 88.0933 130.726 87.7733 131.099 87.48C131.472 87.1867 132.086 87 132.939 86.92C133.792 86.84 134.459 86.8933 134.939 87.08C135.446 87.24 135.806 87.4533 136.019 87.72C136.259 87.9867 136.406 88.24 136.459 88.48C136.512 88.6933 136.539 88.8 136.539 88.8C136.539 88.8 136.632 89.12 136.819 89.76C137.006 90.4 137.179 91.2267 137.339 92.24C137.499 93.2267 137.552 94.28 137.499 95.4C137.472 96.52 137.232 97.5867 136.779 98.6C136.352 99.5867 135.632 100.4 134.619 101.04C133.632 101.68 132.246 102 130.459 102C128.672 102 127.206 101.667 126.059 101C124.912 100.333 124.006 99.48 123.339 98.44C122.699 97.3733 122.232 96.2533 121.939 95.08C121.646 93.9067 121.472 92.8 121.419 91.76C121.366 90.6933 121.352 89.8267 121.379 89.16C121.432 88.4933 121.459 88.16 121.459 88.16ZM143.792 102C143.792 102 143.618 102 143.272 102C142.925 102 142.525 101.947 142.072 101.84C141.645 101.733 141.258 101.52 140.912 101.2C140.565 100.88 140.365 100.413 140.312 99.8C140.285 99.2933 140.232 98.5733 140.152 97.64C140.072 96.7067 139.978 95.6933 139.872 94.6C139.792 93.48 139.712 92.4267 139.632 91.44C139.552 90.4267 139.485 89.6 139.432 88.96C139.378 88.32 139.352 88 139.352 88C139.352 88 139.365 87.8933 139.392 87.68C139.418 87.44 139.512 87.1733 139.672 86.88C139.858 86.5867 140.165 86.32 140.592 86.08C141.045 85.84 141.672 85.7067 142.472 85.68C143.272 85.6533 143.898 85.7333 144.352 85.92C144.805 86.1067 145.125 86.3333 145.312 86.6C145.525 86.84 145.645 87.0667 145.672 87.28C145.725 87.4667 145.752 87.56 145.752 87.56C145.752 87.56 145.992 87.44 146.472 87.2C146.978 86.9333 147.618 86.6667 148.392 86.4C149.192 86.1333 150.032 85.9733 150.912 85.92C151.045 85.92 151.298 85.92 151.672 85.92C152.072 85.92 152.498 86.0133 152.952 86.2C153.432 86.36 153.898 86.68 154.352 87.16C154.832 87.64 155.232 88.3467 155.552 89.28C155.872 90.1867 156.058 91.3867 156.112 92.88C156.192 94.7467 156.245 96.28 156.272 97.48C156.325 98.68 156.285 99.6133 156.152 100.28C156.045 100.92 155.778 101.373 155.352 101.64C154.952 101.88 154.312 102 153.432 102C152.578 102 151.952 101.88 151.552 101.64C151.152 101.4 150.898 101.12 150.792 100.8C150.685 100.453 150.632 100.147 150.632 99.88C150.632 99.72 150.658 99.2933 150.712 98.6C150.765 97.88 150.805 97.0667 150.832 96.16C150.858 95.2267 150.845 94.32 150.792 93.44C150.765 92.5333 150.658 91.8 150.472 91.24C150.312 90.6533 150.045 90.3733 149.672 90.4C149.218 90.4267 148.792 90.6 148.392 90.92C148.018 91.2133 147.685 91.56 147.392 91.96C147.098 92.3333 146.872 92.6667 146.712 92.96C146.552 93.2267 146.472 93.36 146.472 93.36L146.872 99.4C146.872 99.4 146.872 99.5333 146.872 99.8C146.872 100.067 146.792 100.373 146.632 100.72C146.472 101.04 146.165 101.333 145.712 101.6C145.285 101.867 144.645 102 143.792 102ZM158.179 80.16C158.152 79.4933 158.352 78.96 158.779 78.56C159.205 78.1333 160.152 77.88 161.619 77.8C162.605 77.7467 163.325 77.8667 163.779 78.16C164.232 78.4533 164.512 78.76 164.619 79.08C164.752 79.3733 164.819 79.52 164.819 79.52L165.059 83.08C165.059 83.08 165.272 83.08 165.699 83.08C166.152 83.08 166.659 83.1333 167.219 83.24C167.805 83.32 168.312 83.4933 168.739 83.76C169.192 84.0267 169.419 84.44 169.419 85C169.419 85.56 169.205 85.9733 168.779 86.24C168.352 86.5067 167.859 86.6933 167.299 86.8C166.739 86.88 166.232 86.92 165.779 86.92C165.352 86.92 165.139 86.92 165.139 86.92C165.139 86.92 165.139 87.2267 165.139 87.84C165.165 88.4267 165.179 89.2 165.179 90.16C165.179 91.0933 165.192 92.0933 165.219 93.16C165.245 94.2267 165.259 95.2533 165.259 96.24C165.259 97.2 165.259 98.0133 165.259 98.68C165.285 99.32 165.299 99.6933 165.299 99.8C165.299 99.9867 165.232 100.253 165.099 100.6C164.992 100.947 164.685 101.267 164.179 101.56C163.699 101.853 162.899 102 161.779 102C160.952 102 160.312 101.907 159.859 101.72C159.405 101.507 159.072 101.28 158.859 101.04C158.672 100.773 158.565 100.547 158.539 100.36C158.512 100.147 158.499 100.04 158.499 100.04L158.179 80.16ZM179.266 85.48C180.599 85.4533 181.732 85.5733 182.666 85.84C183.599 86.08 184.372 86.3733 184.986 86.72C185.599 87.0667 186.079 87.3733 186.426 87.64C186.772 87.9067 187.026 88.04 187.186 88.04C187.479 88.0667 187.692 88.2133 187.826 88.48C187.959 88.72 188.026 88.84 188.026 88.84C188.026 88.84 188.066 89.1067 188.146 89.64C188.226 90.1733 188.319 90.8533 188.426 91.68C188.559 92.5067 188.679 93.3733 188.786 94.28C188.892 95.1867 188.986 96.04 189.066 96.84C189.146 97.64 189.186 98.2667 189.186 98.72C189.186 99.4667 189.132 100.067 189.026 100.52C188.946 100.973 188.679 101.32 188.226 101.56C187.772 101.773 187.026 101.92 185.986 102C185.212 102.053 184.652 102.04 184.306 101.96C183.959 101.88 183.746 101.787 183.666 101.68C183.586 101.573 183.546 101.52 183.546 101.52C183.306 101.707 182.906 101.84 182.346 101.92C181.812 101.973 181.306 102 180.826 102C180.346 102 180.106 102 180.106 102C180.106 102 179.799 101.96 179.186 101.88C178.572 101.773 177.812 101.573 176.906 101.28C176.026 100.96 175.132 100.493 174.226 99.88C173.346 99.24 172.612 98.4 172.026 97.36C171.439 96.2933 171.159 94.9733 171.186 93.4C171.212 91.8267 171.506 90.5467 172.066 89.56C172.626 88.5467 173.306 87.76 174.106 87.2C174.906 86.64 175.692 86.24 176.466 86C177.266 85.76 177.932 85.6133 178.466 85.56C178.999 85.5067 179.266 85.48 179.266 85.48ZM182.266 89.6C182.132 89.4133 181.839 89.2133 181.386 89C180.959 88.76 180.546 88.56 180.146 88.4C179.772 88.24 179.586 88.1867 179.586 88.24C179.586 88.2667 179.439 88.4933 179.146 88.92C178.879 89.32 178.599 89.92 178.306 90.72C178.039 91.4933 177.892 92.4267 177.866 93.52C177.839 94.6133 177.986 95.56 178.306 96.36C178.626 97.16 179.012 97.7733 179.466 98.2C179.946 98.6267 180.386 98.84 180.786 98.84C181.079 98.84 181.359 98.7067 181.626 98.44C181.892 98.1467 182.119 97.8267 182.306 97.48C182.492 97.1067 182.639 96.7867 182.746 96.52C182.852 96.2533 182.906 96.12 182.906 96.12L182.266 89.6ZM199.71 95.6C197.71 95.5467 196.15 95.3467 195.03 95C193.91 94.6533 193.11 94.24 192.63 93.76C192.177 93.28 191.897 92.8133 191.79 92.36C191.684 91.88 191.63 91.5067 191.63 91.24C191.63 90.9733 191.67 90.56 191.75 90C191.83 89.44 192.084 88.8533 192.51 88.24C192.937 87.6267 193.67 87.0933 194.71 86.64C195.777 86.1867 197.284 85.9333 199.23 85.88C201.364 85.8267 203.004 85.9467 204.15 86.24C205.297 86.5333 206.11 86.88 206.59 87.28C207.097 87.68 207.404 88.04 207.51 88.36C207.617 88.6533 207.67 88.8 207.67 88.8C207.67 89.1467 207.63 89.5067 207.55 89.88C207.47 90.2267 207.23 90.52 206.83 90.76C206.457 90.9733 205.804 91.0667 204.87 91.04C204.124 91.0133 203.564 90.9467 203.19 90.84C202.817 90.7333 202.537 90.6133 202.35 90.48C202.19 90.32 202.017 90.16 201.83 90C201.67 89.84 201.417 89.7067 201.07 89.6C200.75 89.4933 200.23 89.4267 199.51 89.4C198.63 89.3733 197.964 89.44 197.51 89.6C197.084 89.7333 196.79 89.9067 196.63 90.12C196.497 90.3333 196.417 90.52 196.39 90.68C196.39 90.8133 196.39 90.88 196.39 90.88C196.39 90.88 196.417 90.9867 196.47 91.2C196.55 91.4133 196.817 91.6267 197.27 91.84C197.75 92.0533 198.604 92.1733 199.83 92.2C202.15 92.28 203.924 92.5067 205.15 92.88C206.404 93.2267 207.284 93.64 207.79 94.12C208.324 94.6 208.63 95.08 208.71 95.56C208.817 96.0133 208.87 96.3733 208.87 96.64C208.87 96.9067 208.777 97.32 208.59 97.88C208.43 98.44 208.07 99.0267 207.51 99.64C206.95 100.253 206.084 100.787 204.91 101.24C203.764 101.693 202.217 101.947 200.27 102C198.164 102.053 196.524 101.933 195.35 101.64C194.204 101.347 193.377 101 192.87 100.6C192.39 100.2 192.097 99.8533 191.99 99.56C191.884 99.24 191.83 99.08 191.83 99.08C191.83 98.7067 191.87 98.3467 191.95 98C192.057 97.6533 192.297 97.3733 192.67 97.16C193.07 96.92 193.724 96.8133 194.63 96.84C195.404 96.8667 195.964 96.9333 196.31 97.04C196.684 97.1467 196.964 97.28 197.15 97.44C197.337 97.5733 197.51 97.72 197.67 97.88C197.83 98.04 198.084 98.1733 198.43 98.28C198.777 98.3867 199.297 98.4533 199.99 98.48C200.87 98.5067 201.524 98.4533 201.95 98.32C202.404 98.16 202.71 97.9733 202.87 97.76C203.03 97.5467 203.11 97.3733 203.11 97.24C203.11 97.08 203.11 97 203.11 97C203.11 97 203.084 96.8933 203.03 96.68C202.977 96.44 202.71 96.2133 202.23 96C201.777 95.76 200.937 95.6267 199.71 95.6Z" fill="black"/>
</svg>
